# xmcd
#
# Track frame offsets: 
#        150
#        13615
#        24646
#        34306
#        42924
#        51076
#        61953
#        71741
#        84858
#        99198
#        110499
#        124293
#        137034
#        147841
#        162348
#        178241
#        189408
#        203342
#        216236
#        231086
#        247056
#        258598
#        272098
#        285686
#
# Disc length: 3982 seconds
#
# Revision: 4
# Processed by: cddbd v1.5.2PL0 Copyright (c) Steve Scherf et al.
# Submitted via: ExactAudioCopyFreeDBPlugin 1.0
#
DISCID=620f8c18
DTITLE=Various Artist - Memphis Boys:  The Story of American Studios 
DTITLE=(The Soundtrack to Roben Jones' Book) [companion disk to book]
DYEAR=2012
DGENRE=Rhythm and Blues
TTITLE0=King Curtis - Memphis Soul Stew
TTITLE1=Dusty Springfield - Son of a Preacher Man
TTITLE2=James and Bobby Purify - Shake a Tail Feather
TTITLE3=The Box Tops - The Letter
TTITLE4=Sandy Posey - Born a Woman
TTITLE5=James Carr - You've Got My Mind Messed Up
TTITLE6=The Gentrys - Keep on Dancing
TTITLE7=Joe Simon - Nine Pound Steel
TTITLE8=Merrilee Rush - Angel of the Morning
TTITLE9=Wilson Pickett - I'm in Love
TTITLE10=Mark James - Suspicious Minds
TTITLE11=B.J. Thomas - I've Been Down That Road Before
TTITLE12=Arthur Conley - Funky Street
TTITLE13=Oscar Toney, Jr. - For Your Precious Love
TTITLE14=Solomon Burke - Shame on Me
TTITLE15=The Glories - The Dark End of the Street
TTITLE16=Joe Tex - Skinny Legs and All
TTITLE17=Spencer Wiggins - The Power of a Woman
TTITLE18=Bobby Womack - More Than I Can Stand
TTITLE19=L.C. Cooke - Let's Do it Over
TTITLE20=Clay Hammond - Suzy Do it Better Than You
TTITLE21=Percy Milem - I Don't Know What You Got (But It's Got Me)
TTITLE22=Danny O'Keefe - Good Time Charlie's Got the Blues
TTITLE23=Elvis Presley - I'm Movin' On
EXTD=
EXTT0=
EXTT1=
EXTT2=
EXTT3=
EXTT4=
EXTT5=
EXTT6=
EXTT7=
EXTT8=
EXTT9=
EXTT10=
EXTT11=
EXTT12=
EXTT13=
EXTT14=
EXTT15=
EXTT16=
EXTT17=
EXTT18=
EXTT19=
EXTT20=
EXTT21=
EXTT22=
EXTT23=
PLAYORDER=
